<svg width="25" height="27" viewBox="0 0 25 27" fill="none" xmlns="http://www.w3.org/2000/svg">
<g clip-path="url(#clip0_3166_4573)">
<path d="M12.3988 26.9999C12.1616 26.8801 12.0779 26.69 12.0779 26.4223C12.0918 25.7531 12.0848 25.0909 12.0848 24.3936C11.9313 24.3936 11.7848 24.3865 11.6453 24.3936C11.1708 24.4288 10.7103 24.4358 10.2707 24.2034C9.2241 23.6399 9.05665 22.3719 9.92882 21.59C10.173 21.3717 10.4172 21.3646 10.5987 21.5619C10.7801 21.7591 10.7522 21.9915 10.5149 22.231C10.3126 22.4283 10.1451 22.6466 10.2568 22.9495C10.3824 23.2806 10.6266 23.4919 10.9754 23.5201C11.3313 23.5483 11.6871 23.5272 12.0639 23.5272C12.0639 22.4987 12.0639 21.4985 12.0639 20.4911C11.7429 20.4911 11.415 20.4771 11.0871 20.4911C10.2009 20.5475 9.41947 20.3503 8.79848 19.6599C7.8984 18.6526 8.1147 17.3847 9.11247 16.5605C9.31481 16.3915 9.566 16.4126 9.7195 16.5817C9.88696 16.7719 9.873 17.0114 9.67066 17.2156C9.6567 17.2297 9.64275 17.2368 9.62879 17.2509C9.23108 17.6172 8.95199 18.0398 9.15433 18.5963C9.37063 19.188 9.81718 19.5472 10.4451 19.6036C10.9754 19.6459 11.5197 19.6106 12.0709 19.6106C12.0709 18.3779 12.0709 17.2016 12.0709 15.99C11.5964 16.0111 11.1289 16.0604 10.6684 16.0463C10.1312 16.0322 9.58693 16.0252 9.0706 15.9054C8.30309 15.7223 7.73094 15.2081 7.29136 14.56C6.59362 13.5245 6.68433 12.2496 7.5286 11.2775C7.67512 11.1084 7.84258 10.9464 8.01004 10.7985C8.21936 10.6224 8.4845 10.6506 8.638 10.8407C8.79151 11.0309 8.7636 11.2563 8.56823 11.4536C8.40077 11.6297 8.21238 11.7987 8.06586 11.9889C7.54255 12.6863 7.54953 13.4823 8.07283 14.1796C8.56125 14.8277 9.20317 15.1869 10.0195 15.1869C10.6963 15.1799 11.3731 15.1447 12.0639 15.1236C12.0639 11.7635 12.0639 8.41758 12.0639 5.1139C11.736 4.95893 11.4011 4.84622 11.108 4.66308C10.1312 4.0432 9.7195 2.82457 10.0963 1.73274C10.4731 0.626813 11.5615 -0.0846404 12.7198 0.00693278C13.8571 0.098506 14.813 0.964929 15.0153 2.08494C15.2456 3.39514 14.4711 4.64899 13.1873 4.99415C12.9989 5.04346 12.9431 5.12094 12.9431 5.31113C12.95 8.5162 12.95 11.7283 12.9431 14.9334C12.9431 15.1376 13.0198 15.1799 13.1942 15.2363C14.0106 15.4898 14.8409 15.7293 15.6363 16.0604C16.3411 16.3563 16.9062 16.8705 17.1435 17.6453C17.4295 18.5963 17.0946 19.4275 16.5713 20.1953C16.4387 20.3855 16.2085 20.3925 16.0131 20.2587C15.8177 20.1178 15.7759 19.9135 15.8875 19.6811C16.041 19.3571 16.2155 19.0401 16.3201 18.702C16.4806 18.1596 16.3411 17.6665 15.9154 17.2931C15.6642 17.0818 15.3851 16.8775 15.0851 16.7578C14.4572 16.5112 13.8013 16.321 13.1594 16.1097C13.1035 16.0886 13.0407 16.0956 12.957 16.0886C12.95 16.1872 12.9431 16.2717 12.9431 16.3563C12.9431 17.3777 12.95 18.392 12.9361 19.4134C12.9361 19.6106 12.9989 19.674 13.1803 19.7304C13.7245 19.9135 14.2827 20.0685 14.7851 20.3432C16.034 21.0195 16.0968 22.2451 15.3433 23.344C15.2107 23.5412 14.9874 23.5694 14.7851 23.4426C14.5758 23.3158 14.513 23.0975 14.6246 22.8721C14.7083 22.71 14.806 22.548 14.8758 22.379C15.0712 21.8788 14.9735 21.4562 14.506 21.1956C14.0315 20.9208 13.5012 20.7377 12.9361 20.4841C12.9361 20.7588 12.9361 20.9279 12.9361 21.104C12.9361 21.8577 12.9431 22.6185 12.9291 23.3722C12.9221 23.5765 12.9989 23.6539 13.1873 23.7244C13.5082 23.8441 13.8501 23.9709 14.1222 24.1682C14.9386 24.7458 14.7781 25.6686 14.3106 26.2814C14.185 26.4505 13.9966 26.4645 13.8152 26.3659C13.6268 26.2603 13.5431 26.1053 13.585 25.8869C13.592 25.8447 13.6129 25.8024 13.6338 25.7672C14.0594 25.0909 13.7245 24.8655 13.1873 24.6472C13.1175 24.619 13.0407 24.6049 12.9291 24.5697C12.9291 25.0275 12.9291 25.4502 12.9291 25.8799C12.9291 26.056 12.9221 26.2321 12.9291 26.4082C12.95 26.6688 12.8593 26.8731 12.6361 27.0069C12.5733 26.9999 12.4895 26.9999 12.3988 26.9999ZM12.5035 4.2193C13.4385 4.22634 14.199 3.47967 14.199 2.54985C14.199 1.62003 13.4454 0.873356 12.5105 0.873356C11.5894 0.873356 10.8359 1.61299 10.8289 2.52872C10.8289 3.45854 11.5755 4.2193 12.5035 4.2193Z" fill="#018EB4"/>
<path d="M4.1795 10.2699C3.81667 10.3685 3.46082 10.5094 3.098 10.5517C2.80495 10.5869 2.49097 10.5446 2.19792 10.4742C1.81416 10.3826 1.73741 10.1501 1.9258 9.79793C1.96766 9.72045 2.00953 9.65001 2.05139 9.56548C1.83509 9.5373 1.63972 9.52321 1.44436 9.48095C0.753595 9.33302 0.320996 8.87516 0.034923 8.25528C-0.104625 7.95238 0.118652 7.60722 0.453567 7.64949C1.80718 7.8115 2.95845 7.29728 4.07483 6.62105C4.96096 6.0857 5.83314 5.52217 6.74718 5.02908C7.62633 4.55713 8.57525 4.35285 9.56604 4.69801C10.1801 4.90933 10.6964 5.28267 11.1429 5.74758C11.2336 5.83915 11.2895 6.01526 11.2895 6.14909C11.3034 7.45225 11.2964 8.74836 11.2964 10.0515C11.2964 10.4319 11.0243 10.6714 10.7034 10.5376C9.55907 10.0656 8.43571 10.2628 7.31235 10.615C6.7402 10.7982 6.16108 10.9532 5.58195 11.094C5.3517 11.1504 5.09353 11.1434 4.8563 11.1293C4.24229 11.08 4.06786 10.8545 4.1795 10.2699ZM5.24704 10.2488C5.35867 10.2347 5.49822 10.2347 5.62382 10.1994C6.09828 10.0656 6.57972 9.92473 7.0472 9.7768C8.02404 9.46686 9.01483 9.26258 10.0475 9.43868C10.1591 9.45982 10.2777 9.48095 10.4173 9.50208C10.4173 8.42434 10.4173 7.38181 10.4103 6.33224C10.4103 6.27589 10.3684 6.1984 10.3196 6.15614C9.86607 5.75463 9.3637 5.45173 8.74271 5.40946C8.01706 5.36016 7.37514 5.62783 6.76113 5.97299C6.03548 6.38859 5.33076 6.84646 4.61907 7.28319C3.66317 7.86785 2.67238 8.37503 1.53506 8.50886C1.50715 8.50886 1.48622 8.53704 1.42342 8.57931C1.59088 8.60748 1.7095 8.64975 1.82114 8.6427C2.19792 8.61453 2.58167 8.57931 2.95845 8.53C3.16777 8.50182 3.34221 8.53 3.45385 8.72723C3.56548 8.91742 3.5306 9.09352 3.39803 9.26258C3.30732 9.37529 3.21661 9.49504 3.07707 9.67818C3.26546 9.62183 3.38407 9.6007 3.48873 9.55139C3.80969 9.38938 4.12368 9.22736 4.43766 9.05126C4.84235 8.82585 5.20517 8.96673 5.27495 9.4246C5.33076 9.68523 5.26797 9.94586 5.24704 10.2488Z" fill="#018EB4"/>
<path d="M22.9555 9.59387C22.9695 9.64318 22.9695 9.66431 22.9764 9.6784C23.3044 10.2631 23.2137 10.4673 22.5578 10.58C22.0833 10.6646 21.6228 10.566 21.1832 10.3899C21.0646 10.3405 20.946 10.2912 20.8204 10.2419C20.8204 10.2842 20.8065 10.3124 20.8134 10.3335C20.939 10.89 20.7855 11.0943 20.2204 11.1365C19.4598 11.1929 18.7621 10.9393 18.0574 10.7421C17.4992 10.5871 16.934 10.4462 16.3619 10.3405C15.706 10.2208 15.0641 10.3194 14.4361 10.5448C13.9686 10.7139 13.7174 10.5378 13.7104 10.0306C13.7104 8.77676 13.7104 7.51587 13.7104 6.26202C13.7104 6.03661 13.7802 5.86051 13.9407 5.70554C14.7012 4.98704 15.5525 4.51508 16.634 4.59961C17.2689 4.64892 17.862 4.8532 18.4062 5.17019C19.2645 5.66327 20.1087 6.19862 20.953 6.71284C21.6926 7.16366 22.4671 7.55109 23.3323 7.67788C23.7021 7.72719 24.0789 7.7131 24.4487 7.70606C24.644 7.70606 24.8115 7.72719 24.9231 7.90329C25.0348 8.07939 24.9929 8.24845 24.9022 8.42455C24.5115 9.21349 23.8556 9.58683 22.9555 9.59387ZM23.5695 8.61474C23.4579 8.57952 23.4021 8.56544 23.3462 8.55135C22.8508 8.41751 22.3275 8.34707 21.874 8.1287C21.0297 7.72015 20.2343 7.21297 19.411 6.76215C18.7132 6.37472 18.0225 5.95208 17.2899 5.64214C16.3549 5.24063 15.4827 5.48013 14.7361 6.15636C14.6524 6.23384 14.5896 6.37472 14.5896 6.48743C14.5756 7.43838 14.5826 8.38229 14.5826 9.33324C14.5826 9.40368 14.5896 9.47412 14.5966 9.51639C15.0571 9.48117 15.5106 9.42482 15.9572 9.42482C16.8991 9.41777 17.7853 9.7418 18.6714 10.0095C19.0342 10.1151 19.404 10.1997 19.7459 10.2842C19.7459 9.95312 19.6971 9.65727 19.7599 9.3896C19.8575 8.98808 20.1297 8.89651 20.4995 9.07965C20.7995 9.23462 21.0995 9.39664 21.4065 9.54456C21.5321 9.60796 21.6717 9.63614 21.8042 9.6784C21.7275 9.50934 21.5949 9.39664 21.5461 9.25576C21.4972 9.11487 21.4763 8.91764 21.5391 8.79789C21.5949 8.69223 21.7833 8.62883 21.9228 8.58657C22.0066 8.56544 22.1112 8.61474 22.2019 8.62883C22.6415 8.70632 23.0741 8.77676 23.5695 8.61474Z" fill="#018EB4"/>
<path d="M18.302 13.0665C18.302 14.0597 17.5694 15.0459 16.6344 15.3206C16.3902 15.391 16.1878 15.3065 16.0971 15.0811C15.9995 14.8486 16.0832 14.6303 16.3204 14.5105C16.453 14.4471 16.5925 14.3908 16.7181 14.3133C17.688 13.6864 17.688 12.4184 16.7112 11.7915C16.6204 11.7352 16.5297 11.6929 16.439 11.6365C16.2297 11.5027 16.153 11.2773 16.2506 11.073C16.3553 10.8546 16.5856 10.7701 16.8228 10.8617C17.674 11.1928 18.309 12.1367 18.302 13.0665Z" fill="#018EB4"/>
<path d="M11.0871 26.6613C10.5568 26.6402 10.1173 26.2105 10.0893 25.6963C10.0614 25.1539 10.4382 24.6819 10.9755 24.6044C11.2336 24.5692 11.443 24.696 11.4988 24.9285C11.5546 25.1468 11.429 25.3441 11.1987 25.4497C11.108 25.492 11.0383 25.5765 10.9615 25.6399C11.0452 25.7033 11.122 25.7949 11.2197 25.816C11.5267 25.8935 11.6872 26.0344 11.6593 26.2598C11.6244 26.4923 11.3662 26.6754 11.0871 26.6613Z" fill="#018EB4"/>
</g>
<defs>
<clipPath id="clip0_3166_4573">
<rect width="25" height="27" fill="white"/>
</clipPath>
</defs>
</svg>
