<svg width="22" height="22" viewBox="0 0 22 22" fill="none" xmlns="http://www.w3.org/2000/svg">
<path d="M6.87009 2.98797C10.2359 0.195737 14.9189 0.619558 17.7725 3.13755C18.8274 4.06622 19.6384 5.18187 20.1689 6.49696C20.7054 7.81829 20.9067 9.19571 20.7969 10.623C20.6811 12.0378 20.2664 13.3529 19.4798 14.6119C19.8457 14.4498 20.1506 14.319 20.4554 14.1881C20.614 14.1195 20.7664 14.1195 20.9006 14.2504C21.0835 14.4374 21.0103 14.7241 20.7359 14.8487C20.114 15.1354 19.492 15.4221 18.8396 15.7213C19.0225 15.8086 19.1872 15.8834 19.3396 15.9706C19.6445 16.1389 19.7664 16.3882 19.7237 16.7435C19.4737 18.7753 18.175 20.2649 16.242 20.8134C15.1567 21.1188 14.1018 21.0191 13.0469 20.7324C11.2908 20.2525 9.72984 19.3612 8.27253 18.2705C6.05302 16.6126 4.21155 14.5994 2.81521 12.1687C2.01034 10.7663 1.38229 9.2892 1.13839 7.6687C0.912776 6.17286 0.912776 4.69572 1.52253 3.27467C2.39448 1.23036 4.29082 0.76291 5.8518 1.09947C6.0957 1.15557 6.24204 1.32385 6.3335 1.55446C6.51033 2.02191 6.68716 2.49559 6.87009 2.98797ZM18.8518 14.1694C18.925 14.0572 18.9676 14.0011 18.9981 13.945C19.992 12.1562 20.3213 10.2615 19.925 8.23588C18.7664 2.3647 11.8701 -0.178223 7.3396 3.59254C7.20546 3.70473 7.16887 3.78575 7.23594 3.96027C7.49814 4.62093 7.74814 5.28782 7.99814 5.95472C8.15667 6.36608 8.10789 6.57175 7.79082 6.86469C7.20546 7.40693 6.62009 7.9554 6.03472 8.49141C5.92497 8.59114 5.89448 8.67839 5.93716 8.83421C6.8518 12.1188 8.87619 14.3626 11.9737 15.6154C12.1323 15.6777 12.2176 15.6465 12.3274 15.5281C12.8701 14.9609 13.425 14.4062 13.9737 13.8453C14.2847 13.5274 14.4555 13.4962 14.8457 13.6957C15.8762 14.213 16.9067 14.7303 17.9372 15.2476C18.0408 15.2975 18.1506 15.3473 18.2542 15.3972C18.1872 14.6368 18.1201 13.9014 18.053 13.1721C18.0347 12.9852 18.114 12.8543 18.2969 12.8044C18.5713 12.7234 18.7603 12.8605 18.7847 13.1534C18.803 13.4651 18.8274 13.7892 18.8518 14.1694ZM14.4981 14.3439C14.4555 14.3688 14.4433 14.3751 14.4311 14.3875C13.8457 14.9859 13.2481 15.578 12.675 16.1888C12.4189 16.463 12.1567 16.5129 11.8152 16.382C8.30911 15.0232 6.0957 12.4866 5.12619 8.79058C5.05302 8.51635 5.12619 8.31067 5.32741 8.12369C5.93716 7.56275 6.54082 6.98934 7.15058 6.43463C7.27253 6.32245 7.29082 6.23519 7.23594 6.07937C6.76643 4.85777 6.30302 3.6237 5.83351 2.39587C5.57131 1.71651 5.57131 1.72274 4.8518 1.74144C3.6018 1.76637 2.73595 2.3647 2.21765 3.51775C1.88839 4.25943 1.76643 5.04475 1.75424 5.855C1.73595 7.382 2.06521 8.83421 2.68717 10.2116C4.46765 14.1507 7.27863 17.0987 11.0103 19.143C12.1201 19.7538 13.303 20.159 14.5835 20.2525C16.7481 20.4145 18.5652 18.9872 18.9372 16.8307C18.9676 16.6687 18.9311 16.6001 18.7847 16.5316C18.0042 16.1451 17.2298 15.7525 16.4555 15.3598C15.7969 15.017 15.1384 14.6805 14.4981 14.3439Z" fill="#018EB4" stroke="#018EB4" stroke-width="0.2"/>
<path d="M16.4419 9.30808C16.4419 9.65087 16.4419 9.9625 16.4419 10.2804C16.4419 10.5297 16.3017 10.6855 16.1004 10.6855C15.887 10.6855 15.759 10.5421 15.7529 10.2866C15.7468 9.96874 15.7529 9.65087 15.7529 9.30808C15.3626 9.30808 14.9907 9.30808 14.6187 9.30808C14.3626 9.30808 14.1004 9.30184 13.8443 9.30808C13.6492 9.31431 13.4785 9.27068 13.387 9.07747C13.2894 8.87802 13.3626 8.70351 13.4846 8.54146C13.8382 8.07401 14.198 7.6128 14.5516 7.14535C14.9297 6.64674 15.3077 6.15436 15.6858 5.65575C15.8078 5.4937 15.9541 5.36281 16.1675 5.43761C16.3931 5.5124 16.4419 5.69938 16.4419 5.91752C16.4419 6.79009 16.4419 7.65643 16.4419 8.56639C16.5761 8.56639 16.698 8.56016 16.8261 8.56639C17.0639 8.57886 17.2041 8.71598 17.2041 8.94035C17.2041 9.16473 17.0639 9.30184 16.8261 9.30808C16.7102 9.31431 16.5943 9.30808 16.4419 9.30808ZM14.4053 8.55393C14.8809 8.55393 15.3017 8.55393 15.7346 8.55393C15.7346 7.99299 15.7346 7.43828 15.7346 6.82749C15.2773 7.41959 14.8504 7.97429 14.4053 8.55393Z" fill="#018EB4" stroke="#018EB4" stroke-width="0.2"/>
<path d="M10.9418 9.91185C11.3991 9.91185 11.8076 9.91185 12.2162 9.91185C12.332 9.91185 12.4418 9.91185 12.5576 9.91185C12.8015 9.91808 12.9357 10.0552 12.9357 10.2858C12.9357 10.5226 12.7954 10.6847 12.5576 10.6972C12.3625 10.7034 12.1613 10.6972 11.9662 10.6972C11.4235 10.6972 10.8869 10.6972 10.3443 10.6972C10.1431 10.6972 9.96623 10.6535 9.86868 10.4479C9.77112 10.2297 9.88087 10.0801 10.015 9.93055C10.5272 9.38831 11.0333 8.83985 11.5455 8.29761C11.8076 8.01714 12.0272 7.71798 12.1308 7.33779C12.3198 6.64598 11.765 6.06011 11.1004 6.27202C10.8138 6.36551 10.5638 6.57118 10.3138 6.75816C10.0455 6.96384 9.75892 6.91398 9.68575 6.60858C9.66746 6.52132 9.67356 6.39044 9.72234 6.32811C10.1309 5.78588 10.9296 5.25611 11.8137 5.53658C12.6552 5.80458 13.0637 6.63351 12.8137 7.5497C12.6796 8.03584 12.4052 8.4285 12.0576 8.77752C11.7467 9.08915 11.4296 9.38831 11.1186 9.69994C11.076 9.75604 11.0272 9.81213 10.9418 9.91185Z" fill="#018EB4" stroke="#018EB4" stroke-width="0.2"/>
</svg>
