<svg width="20" height="22" viewBox="0 0 20 22" fill="none" xmlns="http://www.w3.org/2000/svg">
<path d="M5.82768 22.0009C5.1218 21.7695 4.77707 21.1991 4.45969 20.6071C3.78117 19.3263 3.45832 17.9432 3.28322 16.5224C3.14095 15.3869 3.03151 14.246 2.63753 13.1589C2.33657 12.3302 1.90976 11.5714 1.41729 10.8395C0.640267 9.6878 0.131376 8.42851 0.0274085 7.04543C-0.142222 4.76363 0.459693 2.7563 2.27638 1.21716C3.15737 0.469114 4.22987 0.162362 5.36804 0.0439672C6.93849 -0.122863 8.41045 0.226942 9.79485 0.948077C9.93165 1.01804 10.0356 1.02342 10.1724 0.953458C11.5568 0.226942 13.0233 -0.112099 14.5992 0.0385856C16.799 0.248468 18.3913 1.32479 19.3051 3.29984C20.3886 5.6516 20.1697 7.96569 18.944 10.2098C18.6594 10.7318 18.3037 11.2162 18.0028 11.7328C17.3188 12.9006 16.9959 14.1761 16.8208 15.4999C16.6512 16.7808 16.5472 18.0831 16.0712 19.3047C15.8249 19.9451 15.5076 20.5586 15.1847 21.1614C14.9658 21.565 14.6156 21.8664 14.156 22.0063C14.0411 22.0063 13.9207 22.0063 13.8058 22.0063C13.3845 21.8879 13.0561 21.635 12.8537 21.269C12.5746 20.7631 12.2682 20.2519 12.1095 19.703C11.7812 18.5621 11.5404 17.3996 11.2613 16.2426C11.1026 15.5914 10.9713 14.9241 10.5664 14.359C10.2545 13.9177 9.72371 13.907 9.42823 14.359C9.26407 14.6066 9.10538 14.8811 9.02878 15.1663C8.79895 16.0004 8.59649 16.8453 8.41592 17.6902C8.19157 18.7289 7.95627 19.7568 7.4638 20.7093C7.16831 21.2852 6.85094 21.8395 6.13958 22.0063C6.03014 22.0009 5.92618 22.0009 5.82768 22.0009ZM0.886506 6.31354C0.886506 6.51266 0.87009 6.71716 0.891977 6.91628C1.01783 8.18095 1.45012 9.33262 2.16694 10.3928C2.69772 11.1731 3.1519 11.9965 3.46927 12.8845C3.84683 13.9393 3.97816 15.0425 4.12043 16.1403C4.24629 17.1198 4.38309 18.0993 4.72782 19.0357C4.96311 19.6761 5.22029 20.3111 5.64164 20.8546C5.93165 21.2206 6.11222 21.2367 6.34752 20.8439C6.62112 20.3918 6.89471 19.9182 7.03698 19.4177C7.35983 18.2768 7.60607 17.1144 7.87966 15.9574C8.04382 15.2739 8.21345 14.5904 8.60196 13.9877C9.16557 13.1105 10.2052 12.8952 10.944 13.5034C11.3051 13.8047 11.5568 14.1868 11.6827 14.6281C11.9289 15.473 12.1478 16.3233 12.3448 17.179C12.5582 18.0993 12.7114 19.0356 13.1054 19.9021C13.2641 20.2519 13.4556 20.5963 13.6745 20.9138C13.8769 21.2098 14.0247 21.1937 14.26 20.9354C14.3475 20.8385 14.4241 20.7362 14.4953 20.6232C15.1793 19.5146 15.5404 18.2984 15.7264 17.0283C15.8414 16.248 15.9344 15.4676 16.0548 14.6927C16.301 13.1213 16.9084 11.6844 17.8222 10.3659C18.2107 9.80082 18.5171 9.19269 18.7306 8.54152C19.3489 6.6472 19.2559 4.81207 18.2052 3.08457C17.6252 2.13203 16.8044 1.44857 15.6991 1.12567C13.8605 0.598272 12.1204 0.867353 10.4734 1.77684C10.1232 1.97058 9.86051 1.97058 9.51578 1.77146C8.14232 1.00727 6.67036 0.68976 5.09444 0.937313C4.10949 1.09338 3.23397 1.45395 2.52262 2.15894C1.35709 3.31598 0.897449 4.73134 0.886506 6.31354Z" fill="#018EB4"/>
<path d="M5.56512 9.28387C5.38455 9.27311 5.25869 9.13857 5.19303 8.93945C5.0234 8.44434 4.85377 7.94923 4.68961 7.45412C4.64583 7.3142 4.5747 7.24962 4.43243 7.20657C3.93995 7.05588 3.45295 6.88906 2.96047 6.72761C2.6814 6.63612 2.56649 6.4962 2.57196 6.27555C2.57744 6.06567 2.69235 5.93651 2.96047 5.84502C3.45295 5.68358 3.93995 5.52213 4.43243 5.36606C4.56923 5.32301 4.64583 5.25305 4.68961 5.11313C4.84282 4.63416 5.00698 4.16058 5.17114 3.687C5.26964 3.40177 5.41738 3.26723 5.63079 3.27262C5.84967 3.278 5.98646 3.40177 6.08496 3.69776C6.24912 4.17134 6.41328 4.64493 6.56649 5.12389C6.61027 5.25305 6.6814 5.32301 6.81273 5.36068C7.30521 5.51675 7.79221 5.67819 8.28469 5.83964C8.56923 5.93651 8.68414 6.06029 8.68414 6.28093C8.68414 6.4962 8.56376 6.63074 8.28469 6.72761C7.79768 6.88906 7.30521 7.05588 6.81273 7.20657C6.67046 7.24962 6.6048 7.33035 6.56102 7.46489C6.39686 7.95999 6.22723 8.4551 6.0576 8.95021C5.97005 9.187 5.82778 9.29463 5.56512 9.28387ZM5.66909 5.08622C5.65267 5.09698 5.63079 5.11313 5.61437 5.12389C5.5706 5.24228 5.5104 5.36068 5.48852 5.48446C5.41738 5.87193 5.18756 6.08181 4.79905 6.15178C4.67867 6.1733 4.56376 6.2325 4.41054 6.2917C4.64583 6.36704 4.83188 6.437 5.01793 6.49082C5.23681 6.55001 5.36266 6.68455 5.42832 6.89444C5.48304 7.08279 5.55418 7.26577 5.63626 7.49718C5.71287 7.27115 5.784 7.08817 5.83872 6.9052C5.90438 6.68455 6.03024 6.54463 6.26006 6.49082C6.35856 6.46929 6.45158 6.43162 6.55008 6.39933C6.63763 6.36704 6.72518 6.33475 6.81273 6.30246C6.82367 6.28093 6.83462 6.26479 6.84556 6.24326C6.10685 6.19483 5.72381 5.80197 5.66909 5.08622Z" fill="#018EB4"/>
<path d="M18.2161 6.70083C18.2106 7.26052 17.9972 8.14848 17.5978 8.99877C17.4719 9.27324 17.2421 9.38087 17.0013 9.284C16.7606 9.18713 16.6676 8.94496 16.7879 8.6705C17.0561 8.07852 17.2476 7.4704 17.3132 6.81923C17.4063 5.83977 17.2585 4.90876 16.7606 4.04232C16.7059 3.94007 16.6402 3.8432 16.5964 3.74095C16.5089 3.54183 16.58 3.32656 16.7606 3.21893C16.9466 3.10592 17.1929 3.13821 17.3297 3.32118C17.461 3.49878 17.5814 3.69251 17.6744 3.89163C18.052 4.66658 18.2271 5.47382 18.2161 6.70083Z" fill="#018EB4"/>
<path d="M15.677 2.02441C15.9068 2.02441 16.1093 2.22891 16.1093 2.44956C16.1093 2.67559 15.9014 2.87471 15.6715 2.87471C15.4417 2.87471 15.2393 2.67021 15.2393 2.44956C15.2447 2.22353 15.4472 2.02441 15.677 2.02441Z" fill="#018EB4"/>
</svg>
