<svg width="32" height="20" viewBox="0 0 32 20" fill="none" xmlns="http://www.w3.org/2000/svg">
<path d="M15.9821 1.83019C17.2204 0.827114 18.5924 0.202389 20.1603 0.0352086C22.1915 -0.184765 23.8396 0.52795 25.1492 2.05017C26.5656 3.69557 26.922 5.58734 26.4855 7.66389C26.4766 7.70789 26.4676 7.75188 26.4587 7.79588C26.4587 7.81348 26.4587 7.83987 26.4677 7.89267C27.2249 7.89267 27.991 7.90147 28.7572 7.88387C28.8374 7.88387 28.9354 7.75188 28.9888 7.6551C29.3986 6.95998 30.2182 6.66081 30.9665 6.95118C31.6881 7.22395 32.1158 7.99825 31.9554 8.72857C31.7861 9.51167 31.0823 10.0484 30.2806 9.99561C29.6926 9.95162 29.2472 9.67005 28.971 9.15971C28.8819 9.00133 28.7928 8.94854 28.6146 8.94854C27.8574 8.95734 27.1002 8.94854 26.3429 8.95734C26.2449 8.95734 26.0935 9.05413 26.0578 9.13332C25.1848 11.4298 23.6971 13.3128 22.0044 15.0638C20.2939 16.8324 18.3875 18.3722 16.4008 19.824C16.1247 20.0264 15.8752 20.0792 15.5812 19.868C13.069 18.0291 10.6636 16.0669 8.65028 13.6736C7.29616 12.0634 6.15585 10.3388 5.5946 8.28862C5.13135 6.57282 5.06899 4.87463 5.95095 3.26442C7.10017 1.22307 8.79282 -0.00878614 11.216 1.28048e-05C12.9443 0.00881175 14.4855 0.642336 15.8396 1.71581C15.8752 1.751 15.9198 1.7862 15.9821 1.83019ZM15.9732 18.8298C17.4966 17.7211 18.9398 16.5596 20.2939 15.275C21.9331 13.7176 23.4298 12.037 24.4899 10.0308C24.6681 9.68765 24.8285 9.32689 25.0066 8.93974C23.795 8.93974 22.6547 8.93974 21.5055 8.93974C20.3652 8.93974 20.5434 9.06293 19.9643 8.05985C19.5634 7.36473 19.1625 6.67841 18.7438 5.9569C18.6815 6.08888 18.6369 6.17687 18.6013 6.26486C17.755 8.35901 16.8997 10.4532 16.0534 12.5561C16.0267 12.6265 15.9999 12.6969 15.9732 12.7673C15.8752 13.0137 15.6971 13.172 15.4209 13.1544C15.1536 13.1368 15.0022 12.9785 14.922 12.7321C14.8953 12.6617 14.8775 12.5825 14.8507 12.5121C14.3251 10.8139 13.7906 9.11572 13.265 7.42632C13.2383 7.32953 13.1937 7.23275 13.1492 7.09196C12.8285 7.6111 12.5345 8.08624 12.2494 8.57019C12.0979 8.83415 11.8841 8.95734 11.5723 8.94854C10.4587 8.93974 9.34516 8.94854 8.24048 8.93974C8.1603 8.93974 8.07122 8.92214 7.99995 8.91334C7.99995 8.56139 7.99995 8.23583 7.99995 7.88387C8.96209 7.88387 9.90641 7.85747 10.8507 7.89267C11.2694 7.91026 11.51 7.79588 11.706 7.42632C12.0534 6.7752 12.4454 6.15048 12.8552 5.53455C12.9532 5.39377 13.2026 5.25298 13.3719 5.27058C13.5411 5.28818 13.6926 5.49055 13.8262 5.63134C13.8797 5.68413 13.8797 5.78972 13.9064 5.87771C14.3964 7.46152 14.8864 9.04533 15.3852 10.6203C15.4209 10.7259 15.4565 10.8315 15.5189 11.0075C15.608 10.7963 15.6614 10.6643 15.7149 10.5323C16.4988 8.58778 17.2917 6.64322 18.0757 4.69865C18.1737 4.44348 18.2895 4.20591 18.6102 4.18831C18.9309 4.16191 19.0734 4.38189 19.216 4.61946C19.795 5.63134 20.3741 6.64322 20.971 7.6463C21.0334 7.75188 21.1759 7.86627 21.2828 7.86627C22.5746 7.88387 23.8574 7.88387 25.1492 7.86627C25.2293 7.86627 25.363 7.76068 25.3808 7.68149C25.6035 6.72241 25.7015 5.75452 25.4521 4.78664C24.9621 2.92126 23.216 0.879907 20.4988 1.03829C18.9665 1.12628 17.6659 1.795 16.5166 2.77168C16.0623 3.15883 15.9109 3.16763 15.4654 2.78048C14.824 2.22615 14.1113 1.7862 13.3273 1.46944C10.9844 0.52795 8.80173 1.11748 7.32289 3.09724C6.38748 4.35549 6.20039 5.76332 6.47656 7.25914C6.77946 8.92214 7.55451 10.3828 8.53447 11.7466C10.5656 14.5623 13.1848 16.7532 15.9732 18.8298ZM30.3786 8.93974C30.6636 8.94854 30.9131 8.71977 30.922 8.4382C30.9309 8.15664 30.7082 7.91026 30.4231 7.89267C30.1202 7.87507 29.8619 8.11264 29.8619 8.4118C29.853 8.69337 30.0846 8.93094 30.3786 8.93974Z" fill="#018EB4"/>
<path d="M4.22272 7.91016C4.22272 8.25331 4.22272 8.57887 4.22272 8.92203C2.81515 8.92203 1.41648 8.92203 0 8.92203C0 8.59647 0 8.26211 0 7.91016C1.38976 7.91016 2.79733 7.91016 4.22272 7.91016Z" fill="#018EB4"/>
</svg>
