<svg width="46" height="46" viewBox="0 0 46 46" fill="none" xmlns="http://www.w3.org/2000/svg">
<g clip-path="url(#clip0_743_5604)">
<path d="M24.4375 2.53297e-08C25.282 0.116797 26.1266 0.197656 26.9621 0.359375C27.8875 0.539063 28.8039 0.763672 29.7113 1.00625C30.475 1.21289 30.8254 1.8418 30.6187 2.49766C30.4211 3.12656 29.7832 3.42305 29.0465 3.19844C26.7465 2.49766 24.4016 2.19219 22.0027 2.32695C16.5133 2.63242 11.8324 4.74375 8.02305 8.70586C4.69883 12.1738 2.7043 16.3426 2.38984 21.1313C1.82383 29.8102 5.30078 36.5035 12.7758 40.9867C16.8996 43.4574 21.4547 44.275 26.1805 43.4574C33.907 42.1188 39.3246 37.7523 42.2805 30.484C44.0684 26.0906 44.1582 21.5625 42.8016 17.0254C42.4961 16.0012 43.1789 15.3094 43.8797 15.3453C44.3918 15.3723 44.7781 15.6598 44.9578 16.2078C45.4609 17.825 45.7844 19.4871 45.9102 21.1762C45.9281 21.3648 45.9641 21.5535 45.991 21.7512C45.991 22.5867 45.991 23.4312 45.991 24.2668C45.9641 24.4016 45.9371 24.5273 45.9191 24.6621C45.7664 25.7223 45.6676 26.8004 45.452 27.8516C43.6281 36.8719 36.0453 44.1582 26.9531 45.6586C26.1176 45.7934 25.273 45.8922 24.4285 46.009C23.4672 46.009 22.5148 46.009 21.5535 46.009C21.4547 45.982 21.3559 45.9461 21.257 45.9371C20.1969 45.7754 19.1187 45.6855 18.0676 45.4609C9.06524 43.5652 1.86875 36.0453 0.350391 26.9621C0.215625 26.1266 0.116797 25.282 -1.81982e-08 24.4375C-1.74824e-08 23.4762 -1.67732e-08 22.5238 -1.60573e-08 21.5625C0.0269531 21.4277 0.0539062 21.302 0.0808594 21.1672C0.269531 19.9992 0.377344 18.8223 0.646875 17.6723C2.71328 8.77773 10.0895 1.8418 19.0469 0.350391C19.8824 0.206641 20.727 0.116797 21.5715 2.2359e-08C22.5238 2.33462e-08 23.4762 2.43333e-08 24.4375 2.53297e-08Z" fill="#018EB4" stroke="white" stroke-width="0.5"/>
<path d="M23.0986 39.0549C15.2732 38.9741 8.57987 33.3229 7.26815 25.5963C5.74979 16.6838 11.8951 8.28344 20.8705 7.04359C21.8857 6.89984 22.9279 6.93578 23.9611 6.93578C24.608 6.93578 25.0572 7.29516 25.2099 7.8432C25.4346 8.61586 24.8416 9.31664 23.9971 9.23578C21.3736 9.01117 18.9119 9.58617 16.5939 10.7991C11.6615 13.3955 8.79549 18.8491 9.41542 24.4104C10.1162 30.6905 14.8689 35.6049 21.149 36.5393C28.5701 37.6534 35.6318 32.3705 36.665 24.9135C36.7908 23.9702 36.7728 23.0088 36.7549 22.0565C36.7459 21.3377 37.1232 20.7987 37.7881 20.7178C38.4349 20.6459 39.0459 21.1041 39.0459 21.8229C39.0459 23.1346 39.1088 24.4823 38.8392 25.7491C37.4197 32.5502 33.2869 36.8358 26.5576 38.5698C25.4346 38.8483 24.2486 38.8932 23.0986 39.0549Z" fill="#018EB4" stroke="white" stroke-width="0.5"/>
<path d="M29.9449 12.2818C29.9449 11.6978 29.9539 11.1138 29.9449 10.5299C29.9359 10.0716 30.0887 9.69431 30.4211 9.37087C32.6313 7.17868 34.8324 4.97751 37.0246 2.76735C37.4199 2.37204 37.8602 2.18337 38.3992 2.39899C38.9473 2.61462 39.118 3.07282 39.109 3.62985C39.1 4.52829 39.109 5.42673 39.109 6.32516C39.109 6.89118 39.109 6.89118 39.702 6.89118C40.6004 6.89118 41.4988 6.90016 42.3973 6.89118C42.9363 6.88219 43.3766 7.06188 43.5922 7.58298C43.8168 8.11305 43.6461 8.56227 43.2418 8.96657C41.0227 11.1767 38.8125 13.3869 36.6024 15.606C36.2879 15.9205 35.9195 16.0642 35.4793 16.0642C34.3293 16.0552 33.1703 16.0732 32.0203 16.0552C31.6969 16.0463 31.4633 16.1451 31.2387 16.3787C28.8758 18.7595 26.5039 21.1224 24.132 23.4943C24.0063 23.6201 23.8805 23.7549 23.7367 23.8537C23.2606 24.2041 22.6316 24.1502 22.2273 23.7279C21.841 23.3146 21.8051 22.7127 22.1645 22.2545C22.2723 22.1107 22.407 21.9849 22.5328 21.8592C24.8777 19.5052 27.2316 17.1513 29.5856 14.8154C29.8371 14.5638 29.9719 14.3213 29.9539 13.9529C29.927 13.3959 29.9449 12.8388 29.9449 12.2818ZM36.827 6.30719C36.7371 6.34313 36.7012 6.34313 36.6832 6.3611C35.2547 7.78962 33.8172 9.21813 32.3977 10.6466C32.3258 10.7185 32.2539 10.8174 32.2539 10.9072C32.2449 11.8416 32.2449 12.7849 32.2449 13.7552C33.1524 13.7552 33.9969 13.7732 34.8504 13.7463C35.057 13.7373 35.3176 13.6295 35.4613 13.4857C36.8 12.174 38.1117 10.8443 39.4414 9.5236C39.5313 9.43376 39.6031 9.33493 39.684 9.2361C39.6391 9.20016 39.6301 9.1822 39.6211 9.1822C39.109 9.17321 38.6059 9.17321 38.0938 9.17321C37.2942 9.16423 36.8449 8.71501 36.836 7.92438C36.827 7.3943 36.827 6.87321 36.827 6.30719Z" fill="#018EB4" stroke="white" stroke-width="0.5"/>
<path d="M23.0718 32.0831C18.3191 32.0831 14.33 28.4265 13.9437 23.7186C13.5484 18.9839 16.7918 14.7522 21.4546 13.9167C21.9578 13.8268 22.4609 13.7819 22.973 13.764C23.6828 13.746 24.1859 14.1952 24.2218 14.8421C24.2668 15.4979 23.7816 15.9561 23.0539 16.064C22.2183 16.1897 21.3468 16.2616 20.5652 16.5491C17.5914 17.6722 15.9023 20.619 16.2707 23.8624C16.6031 26.7733 19.0378 29.253 22.0296 29.7202C26.0636 30.3491 29.7652 27.3124 29.9449 23.2425C29.9898 22.2722 30.4211 21.7511 31.1488 21.778C31.8945 21.805 32.2988 22.389 32.2449 23.3683C31.9753 28.2737 27.9593 32.0831 23.0718 32.0831Z" fill="#018EB4" stroke="white" stroke-width="0.5"/>
</g>
<defs>
<clipPath id="clip0_743_5604">
<rect width="46" height="46" fill="white"/>
</clipPath>
</defs>
</svg>
