<svg width="25" height="25" viewBox="0 0 25 25" fill="none" xmlns="http://www.w3.org/2000/svg">
<circle opacity="0.1" cx="12.5" cy="12.5" r="12.5" fill="#07CDC0"/>
<path d="M9.425 11.075L8.375 12.125L11.75 15.5L19.25 8L18.2 6.95L11.75 13.4L9.425 11.075ZM18.5 12.5C18.5 15.8 15.8 18.5 12.5 18.5C9.2 18.5 6.5 15.8 6.5 12.5C6.5 9.2 9.2 6.5 12.5 6.5C13.1 6.5 13.625 6.575 14.15 6.725L15.35 5.525C14.45 5.225 13.475 5 12.5 5C8.375 5 5 8.375 5 12.5C5 16.625 8.375 20 12.5 20C16.625 20 20 16.625 20 12.5H18.5Z" fill="#018EB4"/>
</svg>
