<svg width="53" height="31" viewBox="0 0 53 31" fill="none" xmlns="http://www.w3.org/2000/svg">
<g clip-path="url(#clip0_743_5618)">
<path d="M26.0713 30.4776C22.1441 30.4636 18.0653 29.401 14.1933 27.5553C9.03971 25.1084 4.57513 21.7108 0.758183 17.4462C-0.275286 16.2857 -0.247727 14.6218 0.813302 13.4473C3.61056 10.3014 6.8212 7.64475 10.3901 5.44956C13.6283 3.45011 17.0732 1.94004 20.7937 1.11509C26.0575 -0.0594055 31.1973 0.415987 36.2131 2.33154C42.4139 4.69452 47.6363 8.49766 52.1009 13.4194C53.2309 14.6638 53.2309 16.3137 52.0871 17.5721C47.1541 22.9692 41.3666 27.052 34.3804 29.2611C31.8036 30.0721 29.1441 30.4776 26.0713 30.4776ZM26.4847 2.19172C25.5063 2.26163 24.528 2.27561 23.5496 2.40145C20.0358 2.84888 16.7287 3.99541 13.587 5.63132C9.27397 7.86847 5.51214 10.8746 2.20504 14.468C1.5574 15.1671 1.57118 15.7963 2.20504 16.4954C2.68733 17.0128 3.16961 17.5441 3.67946 18.0335C7.71687 21.9764 12.2641 25.1224 17.5693 27.0799C22.7917 29.0095 28.0831 29.2751 33.4296 27.7231C37.9355 26.4228 42.0005 24.1996 45.6383 21.2074C47.4296 19.7393 49.0694 18.0754 50.7367 16.4675C51.4119 15.8103 51.3706 15.1532 50.7367 14.4401C50.5438 14.2164 50.3371 14.0066 50.1304 13.7969C46.8509 10.3713 43.158 7.51891 38.9414 5.39363C35.0142 3.43613 30.9079 2.21968 26.4847 2.19172Z" fill="white"/>
<path d="M14.896 15.4453C14.9098 8.99952 20.1323 3.71428 26.4847 3.72826C32.8508 3.74224 38.0595 9.02749 38.0458 15.4733C38.032 21.961 32.8095 27.2322 26.4295 27.2182C20.0634 27.2043 14.8822 21.905 14.896 15.4453ZM32.9749 8.03476C29.7229 4.90276 23.9079 4.3994 19.9945 7.95086C15.709 11.8519 15.4472 18.1019 19.3055 22.3525C22.9571 26.3653 29.2681 26.5331 33.2642 22.688C37.1639 18.9268 37.0261 13.0543 34.4493 9.72659C34.8627 11.1807 34.5595 12.3972 33.4296 13.3899C33.3193 13.4878 33.3193 13.7954 33.3607 13.9911C34.2564 18.4375 30.9906 22.5622 26.5122 22.6181C21.6205 22.6741 18.148 17.6964 19.8153 13.0404C21.1382 9.36306 25.024 7.44751 28.7032 8.67793C29.0063 8.77581 29.1855 8.73386 29.4335 8.52413C29.7367 8.27245 30.0811 8.06272 30.4394 7.90892C31.2662 7.57334 32.093 7.67122 32.9749 8.03476ZM28.4138 10.4537C25.5614 9.30713 22.337 10.8452 21.4 13.7534C20.5594 16.3541 21.6205 18.9828 24.087 20.2971C25.9748 21.2898 27.8488 21.1081 29.5437 19.8776C31.3351 18.5633 32.0654 16.7177 31.7209 14.4665C31.6796 14.1869 31.5556 14.0611 31.2524 14.0191C30.8804 13.9772 30.4945 13.8933 30.1638 13.7255C28.8548 13.0683 28.3174 11.9358 28.4138 10.4537ZM31.5142 9.44695C30.7563 9.44695 30.1087 10.1181 30.1087 10.8871C30.1087 11.6561 30.7701 12.3273 31.528 12.3273C32.3134 12.3273 32.9749 11.6421 32.9611 10.8452C32.9335 10.0622 32.2859 9.43297 31.5142 9.44695Z" fill="white"/>
</g>
<defs>
<clipPath id="clip0_743_5618">
<rect width="52.9412" height="30.0057" fill="white" transform="translate(0 0.471031)"/>
</clipPath>
</defs>
</svg>
